<?xml version="1.0" encoding="UTF-8" standalone="no"?>
<!-- Created with Inkscape (http://www.inkscape.org/) -->

<svg
   xmlns:dc="http://purl.org/dc/elements/1.1/"
   xmlns:cc="http://creativecommons.org/ns#"
   xmlns:rdf="http://www.w3.org/1999/02/22-rdf-syntax-ns#"
   xmlns:svg="http://www.w3.org/2000/svg"
   xmlns="http://www.w3.org/2000/svg"
   xmlns:sodipodi="http://sodipodi.sourceforge.net/DTD/sodipodi-0.dtd"
   xmlns:inkscape="http://www.inkscape.org/namespaces/inkscape"
   version="1.1"
   width="69.682823"
   height="67.710716"
   id="svg2"
   inkscape:version="0.48.4 r9939"
   sodipodi:docname="phpfinansist_logo_plain.svg">
  <sodipodi:namedview
     pagecolor="#ffffff"
     bordercolor="#666666"
     borderopacity="1"
     objecttolerance="10"
     gridtolerance="10"
     guidetolerance="10"
     inkscape:pageopacity="0"
     inkscape:pageshadow="2"
     inkscape:window-width="1301"
     inkscape:window-height="744"
     id="namedview3102"
     showgrid="false"
     fit-margin-top="0"
     fit-margin-left="0"
     fit-margin-right="0"
     fit-margin-bottom="0"
     inkscape:zoom="1"
     inkscape:cx="50.898527"
     inkscape:cy="23.274772"
     inkscape:window-x="65"
     inkscape:window-y="24"
     inkscape:window-maximized="1"
     inkscape:current-layer="svg2" />
  <metadata
     id="metadata15">
    <rdf:RDF>
      <cc:Work
         rdf:about="">
        <dc:format>image/svg+xml</dc:format>
        <dc:type
           rdf:resource="http://purl.org/dc/dcmitype/StillImage" />
        <dc:title />
      </cc:Work>
    </rdf:RDF>
  </metadata>
  <defs
     id="defs13" />
  <g
     id="g3104"
     transform="matrix(0.24655674,0,0,0.24655674,-5.8533609e-4,6.7913812e-5)">
    <g
       style="display:inline"
       id="layer1"
       transform="translate(-12.923267,-7.4548337)">
      <path
         style="fill:#7f7f7f;fill-opacity:1;stroke:none"
         id="path3839"
         transform="matrix(0.84663657,0.53217152,-0.53217152,0.84663657,115.88108,-81.879388)"
         d="m 119.72383,97.581154 a 37.195755,37.195755 0 1 1 -74.391509,0 37.195755,37.195755 0 1 1 74.391509,0 z"
         inkscape:connector-curvature="0" />
      <path
         style="fill:#ffffff;fill-opacity:1;stroke:none"
         id="path3841"
         transform="matrix(0.69654245,0.44324448,-0.43267575,0.6968657,118.55915,-59.925596)"
         d="m 119.72383,97.581154 a 37.195755,37.195755 0 1 1 -74.391509,0 37.195755,37.195755 0 1 1 74.391509,0 z"
         inkscape:connector-curvature="0" />
      <g
         id="g3861"
         transform="translate(50.582204,-40.851826)">
        <text
           style="font-size:55.61178589px;font-style:normal;font-variant:normal;font-weight:normal;font-stretch:normal;line-height:125%;letter-spacing:0px;word-spacing:0px;fill:#7f7f7f;fill-opacity:1;stroke:none;font-family:Tibetan Machine Uni;-inkscape-font-specification:Tibetan Machine Uni"
           xml:space="preserve"
           id="text3843"
           transform="matrix(0.84663657,0.53217152,-0.53217152,0.84663657,0,0)"
           y="46.159954"
           x="100.74995"
           sodipodi:linespacing="125%"><tspan
             style="font-style:normal;font-weight:bold;-inkscape-font-specification:Tibetan Machine Uni Bold"
             id="tspan3845"
             y="46.159954"
             x="100.74995">$</tspan></text>
        <text
           style="font-size:55.61178589px;font-style:normal;font-variant:normal;font-weight:normal;font-stretch:normal;line-height:125%;letter-spacing:0px;word-spacing:0px;fill:#7f7f7f;fill-opacity:1;stroke:none;font-family:Tibetan Machine Uni;-inkscape-font-specification:Tibetan Machine Uni"
           xml:space="preserve"
           id="text3857"
           transform="matrix(0.84663657,0.53217152,-0.53217152,0.84663657,0,0)"
           y="46.515125"
           x="98.610901"
           sodipodi:linespacing="125%"><tspan
             style="font-style:normal;font-weight:bold;-inkscape-font-specification:Tibetan Machine Uni Bold"
             id="tspan3859"
             y="46.515125"
             x="98.610901">$</tspan></text>
      </g>
    </g>
    <g
       style="display:inline"
       id="g4"
       transform="translate(-10.448303,55.468765)">
      <title
         id="title9">Layer 1</title>
      <path
         style="fill:#7f7f7f;fill-rule:evenodd;stroke:#ffffff;stroke-width:1px"
         id="path3175"
         d="M 133.19565,2.9455404 C 75.357276,8.5038687 69.15147,10.697425 46.646582,25.816729 21.585273,42.653496 3.3407168,79.903661 14.101904,167.37214 c -0.523256,13.61133 1.294522,-53.68434 8.75019,-54.5457 7.881901,13.84814 17.410114,25.08516 22.92929,49.82098 2.164121,22.25853 -7.218291,55.59392 -7.218291,55.59392 l 65.107457,-0.11732 c 0,0 -3.2743,-12.15996 -4.14121,-23.1203 -0.57861,-12.62775 -1.510705,-28.44224 10.51749,-32.75525 15.3779,-1.20237 22.89974,-7.28762 30.04986,8.64882 5.44297,29.34566 -6.81445,47.76075 -6.81445,47.76075 l 69.1629,-0.11139 c 0,0 -9.04721,-13.27211 -7.10313,-37.39752 1.01986,-22.66823 0.7418,-48.94764 14.55694,-53.89735 15.47492,-6.43971 43.08901,8.43116 31.5205,37.94537 -1.49011,9.19231 -12.84136,40.96988 -12.84136,40.96988 l 8.10176,3.66345 c 0,0 20.60496,-28.77161 33.01354,-42.81957 14.45704,-21.59031 19.0317,-22.17724 21.88166,-47.30467 C 297.2613,69.571889 278.45038,40.606928 248.49102,22.655801 219.21345,5.1131913 197.52966,0.4850502 133.19565,2.9455404 z"
         inkscape:connector-curvature="0" />
      <path
         style="fill:#ffffff;fill-rule:nonzero;stroke-width:2;stroke-linecap:round;stroke-linejoin:round;stroke-miterlimit:4"
         id="path3195"
         d="m 243.29978,71.705794 c 6.3e-4,1.552197 -1.77699,2.810875 -3.9705,2.810875 -2.19351,0 -3.97144,-1.258678 -3.9705,-2.810875 -6.3e-4,-1.552193 1.77699,-2.810877 3.9705,-2.810877 2.19351,0 3.97144,1.258677 3.9705,2.810877 z"
         inkscape:connector-curvature="0" />
      <path
         style="fill:#ffffff;stroke:#ffffff;stroke-width:0.84319639px;stroke-linecap:butt;stroke-linejoin:miter;stroke-opacity:1"
         id="path3012"
         d="m 200.58684,21.387083 c -45.61606,-25.0340994 -77.72747,-19.4843758 -57.1565,40.789239 9.39324,27.522489 19.35065,36.243457 34.59499,44.962298 34.61895,19.79994 47.49262,-6.23797 43.95666,-2.03888 -17.85806,21.20715 -62.75741,-2.67294 -76.21235,-43.611602 -30.44697,-92.639476 69.42042,-32.086806 54.8172,-40.101055 z"
         inkscape:connector-curvature="0" />
      <path
         style="fill:none;stroke:#000000;stroke-width:1px;stroke-linecap:butt;stroke-linejoin:miter;stroke-opacity:1"
         id="path3046"
         transform="translate(-126.31058,-78.266065)"
         d="M 224.72435,168.87302 z"
         inkscape:connector-curvature="0" />
      <path
         style="fill:#808080;stroke:#ffffff"
         id="path3048"
         transform="translate(-126.31058,-78.266065)"
         d="m 160.79415,220.01718 a 5.4243808,8.5240269 0 1 1 -10.84876,0 5.4243808,8.5240269 0 1 1 10.84876,0 z"
         inkscape:connector-curvature="0" />
      <path
         style="fill:#808080;fill-opacity:1;stroke:none"
         id="path3050"
         transform="translate(-126.31058,-78.266065)"
         d="m 153.81994,244.03943 a 4.4557414,6.5867481 0 1 1 -8.91148,0 4.4557414,6.5867481 0 1 1 8.91148,0 z"
         inkscape:connector-curvature="0" />
      <path
         style="fill:#808080;stroke:#ffffff"
         id="path3052"
         transform="translate(-126.31058,-78.266065)"
         d="m 162.73142,272.90488 a 4.6494694,6.0055642 0 1 1 -9.29893,0 4.6494694,6.0055642 0 1 1 9.29893,0 z"
         inkscape:connector-curvature="0" />
      <path
         style="fill:none;stroke:none"
         id="path3054"
         transform="translate(-126.31058,-78.266065)"
         d="m 152.86921,226.20396 c -2.42638,-3.08464 -2.66322,-8.16772 -0.543,-11.65414 1.9937,-3.27837 5.16352,-2.61748 6.87837,1.4341 2.73448,6.4606 -2.56629,15.01165 -6.33537,10.22004 z"
         inkscape:connector-curvature="0" />
      <path
         style="fill:#808080;fill-opacity:1;stroke:none"
         id="path3056"
         transform="translate(-126.31058,-78.266065)"
         d="m 146.79418,247.78235 c -1.38435,-2.27051 -1.38435,-5.12676 0,-7.39726 2.21935,-3.64001 6.03341,-1.30189 6.03341,3.69863 0,5.00051 -3.81406,7.33863 -6.03341,3.69863 z"
         inkscape:connector-curvature="0" />
      <path
         style="fill:none;stroke:none"
         id="path3058"
         transform="translate(-126.31058,-78.266065)"
         d="m 155.60708,276.61256 c -1.65745,-2.10711 -1.55445,-5.8585 0.2093,-7.62224 1.56527,-1.56528 2.34211,-1.66201 4.00327,-0.49849 2.32957,1.63169 2.50754,6.14554 0.33687,8.5441 -1.30837,1.44573 -3.21907,1.26792 -4.54944,-0.42337 z"
         inkscape:connector-curvature="0" />
      <path
         style="fill:#7f7f7f;fill-opacity:1;stroke:none"
         id="path3828"
         transform="translate(-126.31058,-78.266065)"
         d="m 153.87075,227.47226 c -4.33505,-2.29071 -4.30599,-12.70639 0.0416,-14.92439 3.12641,-1.59498 6.19368,2.10288 6.19368,7.46702 0,1.7792 -0.32277,3.40326 -0.96485,4.85479 -0.42621,0.96352 -1.61171,2.32421 -2.36382,2.71314 -0.74253,0.38398 -2.06602,0.33364 -2.90665,-0.11056 z"
         inkscape:connector-curvature="0" />
      <path
         style="fill:#7f7f7f;fill-opacity:1;stroke:#ffffff"
         id="path3830"
         transform="translate(-126.31058,-78.266065)"
         d="m 148.17418,250.26637 c -2.69739,-1.22357 -3.96977,-5.89117 -2.55842,-9.38533 0.87776,-2.17312 2.10851,-3.23691 3.74492,-3.23691 1.50096,0 2.47621,0.74777 3.44053,2.63802 0.63915,1.25286 0.7604,1.69545 0.8473,3.09286 0.23196,3.73012 -1.55668,6.85015 -4.05968,7.08153 -0.45672,0.0422 -1.09,-0.0429 -1.41465,-0.19017 z"
         inkscape:connector-curvature="0" />
    </g>
  </g>
</svg>
